<svg width="35" height="35" id="Layer_1" viewBox="0 0 100 100" xmlns="http://www.w3.org/2000/svg">
<g>
<path d="m24.51 79h50.97c.54 0 1.05-.22 1.43-.6s.58-.9.57-1.44c-.24-12.17-8.55-22.49-19.72-25.82 3.76-2.51 6.24-6.79 6.24-11.64 0-7.72-6.28-14-14-14s-14 6.28-14 14c0 4.85 2.48 9.13 6.23 11.64-11.17 3.34-19.48 13.65-19.72 25.82-.01.54.2 1.06.57 1.44s.9.6 1.43.6zm15.49-39.5c0-5.51 4.49-10 10-10s10 4.49 10 10-4.49 10-10 10-10-4.49-10-10zm10 14.5c12.02 0 22.1 9.25 23.36 21h-46.72c1.26-11.75 11.34-21 23.36-21z" fill="white"></path>
</g>
</svg>